<mxfile host="app.diagrams.net" modified="2022-05-18T07:28:50.880Z" agent="5.0 (X11)" etag="09xBGdP-8FSFsIq4yV7I" version="17.4.4" type="github">
  <diagram id="gd4RR7Ce3zrP7FcpOa7D" name="第 1 页">
    <mxGraphModel dx="1355" dy="793" grid="1" gridSize="10" guides="1" tooltips="1" connect="1" arrows="1" fold="1" page="1" pageScale="1" pageWidth="1200" pageHeight="1920" math="0" shadow="0">
      <root>
        <mxCell id="0" />
        <mxCell id="1" parent="0" />
        <mxCell id="tGs9OYc5qSsSg6o_rcc3-1" value="ui" style="rounded=0;whiteSpace=wrap;html=1;" vertex="1" parent="1">
          <mxGeometry y="50" width="120" height="60" as="geometry" />
        </mxCell>
        <mxCell id="tGs9OYc5qSsSg6o_rcc3-2" value="Search302Activity" style="rounded=1;whiteSpace=wrap;html=1;" vertex="1" parent="1">
          <mxGeometry y="200" width="120" height="60" as="geometry" />
        </mxCell>
        <mxCell id="tGs9OYc5qSsSg6o_rcc3-3" value="IotRecorderManager" style="rounded=1;whiteSpace=wrap;html=1;" vertex="1" parent="1">
          <mxGeometry x="160" y="50" width="120" height="60" as="geometry" />
        </mxCell>
        <mxCell id="tGs9OYc5qSsSg6o_rcc3-4" value="BluetoothPersenterImpl" style="rounded=1;whiteSpace=wrap;html=1;" vertex="1" parent="1">
          <mxGeometry x="320" y="50" width="160" height="60" as="geometry" />
        </mxCell>
        <mxCell id="tGs9OYc5qSsSg6o_rcc3-5" value="TransmissImpl" style="rounded=1;whiteSpace=wrap;html=1;" vertex="1" parent="1">
          <mxGeometry x="520" y="50" width="120" height="60" as="geometry" />
        </mxCell>
        <mxCell id="tGs9OYc5qSsSg6o_rcc3-6" value="BluetoothConnectImpl" style="rounded=1;whiteSpace=wrap;html=1;" vertex="1" parent="1">
          <mxGeometry x="680" y="50" width="120" height="60" as="geometry" />
        </mxCell>
        <mxCell id="tGs9OYc5qSsSg6o_rcc3-7" value="BlueDiscoveryControl" style="rounded=1;whiteSpace=wrap;html=1;" vertex="1" parent="1">
          <mxGeometry x="850" y="50" width="120" height="60" as="geometry" />
        </mxCell>
        <mxCell id="tGs9OYc5qSsSg6o_rcc3-8" value="BluetoothAdapter" style="rounded=1;whiteSpace=wrap;html=1;" vertex="1" parent="1">
          <mxGeometry x="1200" y="50" width="120" height="60" as="geometry" />
        </mxCell>
        <mxCell id="tGs9OYc5qSsSg6o_rcc3-9" value="" style="endArrow=none;dashed=1;html=1;dashPattern=1 3;strokeWidth=2;rounded=0;" edge="1" parent="1">
          <mxGeometry width="50" height="50" relative="1" as="geometry">
            <mxPoint x="210" y="2250" as="sourcePoint" />
            <mxPoint x="210" y="485" as="targetPoint" />
          </mxGeometry>
        </mxCell>
        <mxCell id="tGs9OYc5qSsSg6o_rcc3-10" value="" style="endArrow=none;dashed=1;html=1;dashPattern=1 3;strokeWidth=2;rounded=0;" edge="1" parent="1">
          <mxGeometry width="50" height="50" relative="1" as="geometry">
            <mxPoint x="400" y="2220" as="sourcePoint" />
            <mxPoint x="399.5" y="540" as="targetPoint" />
          </mxGeometry>
        </mxCell>
        <mxCell id="tGs9OYc5qSsSg6o_rcc3-11" value="" style="endArrow=none;dashed=1;html=1;dashPattern=1 3;strokeWidth=2;rounded=0;" edge="1" parent="1">
          <mxGeometry width="50" height="50" relative="1" as="geometry">
            <mxPoint x="580" y="2230" as="sourcePoint" />
            <mxPoint x="580" y="110" as="targetPoint" />
          </mxGeometry>
        </mxCell>
        <mxCell id="tGs9OYc5qSsSg6o_rcc3-12" value="" style="endArrow=none;dashed=1;html=1;dashPattern=1 3;strokeWidth=2;rounded=0;" edge="1" parent="1">
          <mxGeometry width="50" height="50" relative="1" as="geometry">
            <mxPoint x="740" y="2210" as="sourcePoint" />
            <mxPoint x="740" y="110" as="targetPoint" />
          </mxGeometry>
        </mxCell>
        <mxCell id="tGs9OYc5qSsSg6o_rcc3-13" value="" style="endArrow=none;dashed=1;html=1;dashPattern=1 3;strokeWidth=2;rounded=0;" edge="1" parent="1">
          <mxGeometry width="50" height="50" relative="1" as="geometry">
            <mxPoint x="910" y="440" as="sourcePoint" />
            <mxPoint x="910" y="110" as="targetPoint" />
          </mxGeometry>
        </mxCell>
        <mxCell id="tGs9OYc5qSsSg6o_rcc3-14" value="" style="endArrow=none;dashed=1;html=1;dashPattern=1 3;strokeWidth=2;rounded=0;" edge="1" parent="1">
          <mxGeometry width="50" height="50" relative="1" as="geometry">
            <mxPoint x="1270" y="1120" as="sourcePoint" />
            <mxPoint x="1270" y="120" as="targetPoint" />
          </mxGeometry>
        </mxCell>
        <mxCell id="tGs9OYc5qSsSg6o_rcc3-15" value="物联管理及消息处理类" style="text;html=1;align=center;verticalAlign=middle;resizable=0;points=[];autosize=1;strokeColor=none;fillColor=none;" vertex="1" parent="1">
          <mxGeometry x="150" y="20" width="140" height="20" as="geometry" />
        </mxCell>
        <mxCell id="tGs9OYc5qSsSg6o_rcc3-16" value="物联状态机" style="text;html=1;align=center;verticalAlign=middle;resizable=0;points=[];autosize=1;strokeColor=none;fillColor=none;" vertex="1" parent="1">
          <mxGeometry x="360" y="20" width="80" height="20" as="geometry" />
        </mxCell>
        <mxCell id="tGs9OYc5qSsSg6o_rcc3-17" value="BluetoothGattLayer" style="rounded=1;whiteSpace=wrap;html=1;" vertex="1" parent="1">
          <mxGeometry x="1030" y="50" width="120" height="60" as="geometry" />
        </mxCell>
        <mxCell id="tGs9OYc5qSsSg6o_rcc3-18" value="" style="endArrow=none;dashed=1;html=1;dashPattern=1 3;strokeWidth=2;rounded=0;" edge="1" parent="1">
          <mxGeometry width="50" height="50" relative="1" as="geometry">
            <mxPoint x="1080" y="2220" as="sourcePoint" />
            <mxPoint x="1080" y="130" as="targetPoint" />
          </mxGeometry>
        </mxCell>
        <mxCell id="tGs9OYc5qSsSg6o_rcc3-19" value="" style="endArrow=classic;html=1;rounded=0;" edge="1" parent="1">
          <mxGeometry width="50" height="50" relative="1" as="geometry">
            <mxPoint x="130" y="229.5" as="sourcePoint" />
            <mxPoint x="390" y="230" as="targetPoint" />
          </mxGeometry>
        </mxCell>
        <mxCell id="tGs9OYc5qSsSg6o_rcc3-20" value="&lt;pre style=&quot;font-family: &amp;#34;dejavu sans mono&amp;#34; , monospace ; font-size: 12pt&quot;&gt;&lt;span style=&quot;background-color: rgb(255 , 255 , 255)&quot;&gt;startDiscoveryDevice&lt;/span&gt;&lt;/pre&gt;" style="text;html=1;align=center;verticalAlign=middle;resizable=0;points=[];autosize=1;strokeColor=none;fillColor=none;" vertex="1" parent="1">
          <mxGeometry x="140" y="170" width="210" height="50" as="geometry" />
        </mxCell>
        <mxCell id="tGs9OYc5qSsSg6o_rcc3-22" value="" style="endArrow=classic;html=1;rounded=0;fontColor=#000000;" edge="1" parent="1">
          <mxGeometry width="50" height="50" relative="1" as="geometry">
            <mxPoint x="410" y="255" as="sourcePoint" />
            <mxPoint x="730" y="255" as="targetPoint" />
          </mxGeometry>
        </mxCell>
        <mxCell id="tGs9OYc5qSsSg6o_rcc3-23" value="&lt;pre style=&quot;background-color: #2b2b2b ; color: #a9b7c6 ; font-family: &amp;#34;dejavu sans mono&amp;#34; , monospace ; font-size: 12.0pt&quot;&gt;&lt;span style=&quot;color: #ffc66d&quot;&gt;startScan&lt;/span&gt;&lt;/pre&gt;" style="text;html=1;align=center;verticalAlign=middle;resizable=0;points=[];autosize=1;strokeColor=none;fillColor=none;fontColor=#000000;" vertex="1" parent="1">
          <mxGeometry x="440" y="200" width="100" height="50" as="geometry" />
        </mxCell>
        <mxCell id="tGs9OYc5qSsSg6o_rcc3-24" value="" style="endArrow=classic;html=1;rounded=0;fontColor=#000000;" edge="1" parent="1">
          <mxGeometry width="50" height="50" relative="1" as="geometry">
            <mxPoint x="750" y="290" as="sourcePoint" />
            <mxPoint x="910" y="290" as="targetPoint" />
          </mxGeometry>
        </mxCell>
        <mxCell id="tGs9OYc5qSsSg6o_rcc3-25" value="&lt;pre style=&quot;background-color: #2b2b2b ; color: #a9b7c6 ; font-family: &amp;#34;dejavu sans mono&amp;#34; , monospace ; font-size: 12.0pt&quot;&gt;startDiscovery&lt;/pre&gt;" style="text;html=1;align=center;verticalAlign=middle;resizable=0;points=[];autosize=1;strokeColor=none;fillColor=none;fontColor=#000000;" vertex="1" parent="1">
          <mxGeometry x="755" y="230" width="150" height="50" as="geometry" />
        </mxCell>
        <mxCell id="tGs9OYc5qSsSg6o_rcc3-26" value="" style="endArrow=classic;html=1;rounded=0;fontColor=#000000;" edge="1" parent="1">
          <mxGeometry width="50" height="50" relative="1" as="geometry">
            <mxPoint x="920" y="320" as="sourcePoint" />
            <mxPoint x="1260" y="320" as="targetPoint" />
          </mxGeometry>
        </mxCell>
        <mxCell id="tGs9OYc5qSsSg6o_rcc3-27" value="&lt;pre style=&quot;background-color: #2b2b2b ; color: #a9b7c6 ; font-family: &amp;#34;dejavu sans mono&amp;#34; , monospace ; font-size: 12.0pt&quot;&gt;startDiscovery&lt;/pre&gt;" style="text;html=1;align=center;verticalAlign=middle;resizable=0;points=[];autosize=1;strokeColor=none;fillColor=none;fontColor=#000000;" vertex="1" parent="1">
          <mxGeometry x="1050" y="260" width="150" height="50" as="geometry" />
        </mxCell>
        <mxCell id="tGs9OYc5qSsSg6o_rcc3-28" value="" style="endArrow=classic;html=1;rounded=0;fontColor=#000000;" edge="1" parent="1">
          <mxGeometry width="50" height="50" relative="1" as="geometry">
            <mxPoint x="1265" y="400" as="sourcePoint" />
            <mxPoint x="400" y="400" as="targetPoint" />
          </mxGeometry>
        </mxCell>
        <mxCell id="tGs9OYc5qSsSg6o_rcc3-29" value="&lt;p style=&quot;line-height: 1.2&quot; align=&quot;left&quot;&gt;&lt;/p&gt;&lt;div align=&quot;left&quot;&gt;&lt;pre style=&quot;font-family: &amp;#34;dejavu sans mono&amp;#34; , monospace ; font-size: 12pt&quot;&gt;&lt;span style=&quot;background-color: rgb(255 , 255 , 255)&quot;&gt;onDiscoveried(&lt;/span&gt;&lt;span style=&quot;background-color: rgb(255 , 255 , 255)&quot;&gt;BluetoothDevice)&lt;/span&gt;&lt;/pre&gt;&lt;/div&gt;&lt;p align=&quot;left&quot;&gt;&lt;/p&gt;" style="text;html=1;align=left;verticalAlign=middle;resizable=0;points=[];autosize=1;strokeColor=none;fillColor=none;fontColor=#000000;" vertex="1" parent="1">
          <mxGeometry x="630" y="340" width="300" height="50" as="geometry" />
        </mxCell>
        <mxCell id="tGs9OYc5qSsSg6o_rcc3-30" value="" style="endArrow=classic;html=1;rounded=0;fontColor=#000000;" edge="1" parent="1">
          <mxGeometry width="50" height="50" relative="1" as="geometry">
            <mxPoint x="390" y="420" as="sourcePoint" />
            <mxPoint x="70" y="420" as="targetPoint" />
          </mxGeometry>
        </mxCell>
        <mxCell id="tGs9OYc5qSsSg6o_rcc3-31" value="&lt;pre style=&quot;background-color: #2b2b2b ; color: #a9b7c6 ; font-family: &amp;#34;dejavu sans mono&amp;#34; , monospace ; font-size: 12.0pt&quot;&gt;&lt;span style=&quot;background-color: #52503a&quot;&gt;updateConnectUI&lt;/span&gt;&lt;/pre&gt;" style="text;html=1;align=center;verticalAlign=middle;resizable=0;points=[];autosize=1;strokeColor=none;fillColor=none;fontColor=#000000;" vertex="1" parent="1">
          <mxGeometry x="180" y="365" width="160" height="50" as="geometry" />
        </mxCell>
        <mxCell id="tGs9OYc5qSsSg6o_rcc3-32" value="" style="endArrow=classic;html=1;rounded=0;fontColor=#000000;" edge="1" parent="1">
          <mxGeometry width="50" height="50" relative="1" as="geometry">
            <mxPoint x="80" y="440" as="sourcePoint" />
            <mxPoint x="1240" y="440" as="targetPoint" />
          </mxGeometry>
        </mxCell>
        <mxCell id="tGs9OYc5qSsSg6o_rcc3-33" value="&lt;pre style=&quot;background-color: #2b2b2b ; color: #a9b7c6 ; font-family: &amp;#34;dejavu sans mono&amp;#34; , monospace ; font-size: 12.0pt&quot;&gt;&lt;span style=&quot;background-color: #52503a&quot;&gt;stopDiscoveryDevice&lt;/span&gt;&lt;/pre&gt;" style="text;html=1;align=center;verticalAlign=middle;resizable=0;points=[];autosize=1;strokeColor=none;fillColor=none;fontColor=#000000;" vertex="1" parent="1">
          <mxGeometry x="220" y="440" width="200" height="50" as="geometry" />
        </mxCell>
        <mxCell id="tGs9OYc5qSsSg6o_rcc3-34" value="" style="endArrow=none;dashed=1;html=1;dashPattern=1 3;strokeWidth=2;rounded=0;fontColor=#000000;startArrow=none;" edge="1" parent="1" source="tGs9OYc5qSsSg6o_rcc3-57">
          <mxGeometry width="50" height="50" relative="1" as="geometry">
            <mxPoint x="60" y="780" as="sourcePoint" />
            <mxPoint x="60" y="260" as="targetPoint" />
          </mxGeometry>
        </mxCell>
        <mxCell id="tGs9OYc5qSsSg6o_rcc3-35" value="" style="endArrow=classic;html=1;rounded=0;fontColor=#000000;" edge="1" parent="1">
          <mxGeometry width="50" height="50" relative="1" as="geometry">
            <mxPoint x="90" y="560" as="sourcePoint" />
            <mxPoint x="380" y="560" as="targetPoint" />
          </mxGeometry>
        </mxCell>
        <mxCell id="tGs9OYc5qSsSg6o_rcc3-36" value="&lt;pre style=&quot;background-color: #2b2b2b ; color: #a9b7c6 ; font-family: &amp;#34;dejavu sans mono&amp;#34; , monospace ; font-size: 12.0pt&quot;&gt;bondDevice&lt;/pre&gt;" style="text;html=1;align=center;verticalAlign=middle;resizable=0;points=[];autosize=1;strokeColor=none;fillColor=none;fontColor=#000000;" vertex="1" parent="1">
          <mxGeometry x="145" y="515" width="110" height="50" as="geometry" />
        </mxCell>
        <mxCell id="tGs9OYc5qSsSg6o_rcc3-37" value="" style="endArrow=classic;html=1;rounded=0;fontColor=#000000;" edge="1" parent="1">
          <mxGeometry width="50" height="50" relative="1" as="geometry">
            <mxPoint x="410" y="560" as="sourcePoint" />
            <mxPoint x="720" y="560" as="targetPoint" />
          </mxGeometry>
        </mxCell>
        <mxCell id="tGs9OYc5qSsSg6o_rcc3-38" value="&lt;pre style=&quot;background-color: #2b2b2b ; color: #a9b7c6 ; font-family: &amp;#34;dejavu sans mono&amp;#34; , monospace ; font-size: 12.0pt&quot;&gt;&lt;span style=&quot;color: #ffc66d&quot;&gt;connet&lt;/span&gt;&lt;/pre&gt;" style="text;html=1;align=center;verticalAlign=middle;resizable=0;points=[];autosize=1;strokeColor=none;fillColor=none;fontColor=#000000;" vertex="1" parent="1">
          <mxGeometry x="455" y="515" width="70" height="50" as="geometry" />
        </mxCell>
        <mxCell id="tGs9OYc5qSsSg6o_rcc3-39" value="" style="endArrow=classic;html=1;rounded=0;fontColor=#000000;" edge="1" parent="1">
          <mxGeometry width="50" height="50" relative="1" as="geometry">
            <mxPoint x="740" y="660" as="sourcePoint" />
            <mxPoint x="1050" y="660" as="targetPoint" />
          </mxGeometry>
        </mxCell>
        <mxCell id="tGs9OYc5qSsSg6o_rcc3-40" value="&lt;pre style=&quot;background-color: #2b2b2b ; color: #a9b7c6 ; font-family: &amp;#34;dejavu sans mono&amp;#34; , monospace ; font-size: 12.0pt&quot;&gt;&lt;span style=&quot;color: #ffc66d&quot;&gt;connet&lt;/span&gt;&lt;/pre&gt;" style="text;html=1;align=center;verticalAlign=middle;resizable=0;points=[];autosize=1;strokeColor=none;fillColor=none;fontColor=#000000;" vertex="1" parent="1">
          <mxGeometry x="960" y="600" width="70" height="50" as="geometry" />
        </mxCell>
        <mxCell id="tGs9OYc5qSsSg6o_rcc3-41" value="&lt;pre style=&quot;background-color: #2b2b2b ; color: #a9b7c6 ; font-family: &amp;#34;dejavu sans mono&amp;#34; , monospace ; font-size: 12.0pt&quot;&gt;BlueBondControl&lt;/pre&gt;" style="rounded=1;whiteSpace=wrap;html=1;labelBackgroundColor=#FFFFFF;fontColor=#000000;" vertex="1" parent="1">
          <mxGeometry x="830" y="450" width="160" height="60" as="geometry" />
        </mxCell>
        <mxCell id="tGs9OYc5qSsSg6o_rcc3-42" value="" style="endArrow=none;dashed=1;html=1;dashPattern=1 3;strokeWidth=2;rounded=0;fontColor=#000000;" edge="1" parent="1">
          <mxGeometry width="50" height="50" relative="1" as="geometry">
            <mxPoint x="910" y="650" as="sourcePoint" />
            <mxPoint x="910" y="520" as="targetPoint" />
          </mxGeometry>
        </mxCell>
        <mxCell id="tGs9OYc5qSsSg6o_rcc3-43" value="" style="endArrow=classic;html=1;rounded=0;fontColor=#000000;" edge="1" parent="1">
          <mxGeometry width="50" height="50" relative="1" as="geometry">
            <mxPoint x="750" y="550" as="sourcePoint" />
            <mxPoint x="900" y="550" as="targetPoint" />
          </mxGeometry>
        </mxCell>
        <mxCell id="tGs9OYc5qSsSg6o_rcc3-44" value="&lt;pre style=&quot;background-color: #2b2b2b ; color: #a9b7c6 ; font-family: &amp;#34;dejavu sans mono&amp;#34; , monospace ; font-size: 12.0pt&quot;&gt;&lt;span style=&quot;color: #ffc66d&quot;&gt;bondDevice&lt;/span&gt;&lt;/pre&gt;" style="text;html=1;align=center;verticalAlign=middle;resizable=0;points=[];autosize=1;strokeColor=none;fillColor=none;fontColor=#000000;" vertex="1" parent="1">
          <mxGeometry x="770" y="505" width="110" height="50" as="geometry" />
        </mxCell>
        <mxCell id="tGs9OYc5qSsSg6o_rcc3-49" value="" style="rounded=0;whiteSpace=wrap;html=1;labelBackgroundColor=#FFFFFF;fontColor=#000000;" vertex="1" parent="1">
          <mxGeometry x="890" y="560" width="40" height="60" as="geometry" />
        </mxCell>
        <mxCell id="tGs9OYc5qSsSg6o_rcc3-50" value="" style="endArrow=classic;html=1;rounded=0;fontColor=#000000;" edge="1" parent="1">
          <mxGeometry width="50" height="50" relative="1" as="geometry">
            <mxPoint x="920" y="550" as="sourcePoint" />
            <mxPoint x="940" y="580" as="targetPoint" />
            <Array as="points">
              <mxPoint x="950" y="550" />
              <mxPoint x="950" y="580" />
            </Array>
          </mxGeometry>
        </mxCell>
        <mxCell id="tGs9OYc5qSsSg6o_rcc3-51" value="&lt;pre style=&quot;background-color: #2b2b2b ; color: #a9b7c6 ; font-family: &amp;#34;dejavu sans mono&amp;#34; , monospace ; font-size: 12.0pt&quot;&gt;&lt;span style=&quot;background-color: #52503a&quot;&gt;BONDED&lt;/span&gt;&lt;/pre&gt;" style="text;html=1;align=center;verticalAlign=middle;resizable=0;points=[];autosize=1;strokeColor=none;fillColor=none;fontColor=#000000;" vertex="1" parent="1">
          <mxGeometry x="950" y="540" width="70" height="50" as="geometry" />
        </mxCell>
        <mxCell id="tGs9OYc5qSsSg6o_rcc3-53" value="" style="endArrow=classic;html=1;rounded=0;fontColor=#000000;" edge="1" parent="1">
          <mxGeometry width="50" height="50" relative="1" as="geometry">
            <mxPoint x="940" y="600" as="sourcePoint" />
            <mxPoint x="1050" y="600" as="targetPoint" />
          </mxGeometry>
        </mxCell>
        <mxCell id="tGs9OYc5qSsSg6o_rcc3-54" value="" style="rounded=0;whiteSpace=wrap;html=1;labelBackgroundColor=#FFFFFF;fontColor=#000000;" vertex="1" parent="1">
          <mxGeometry x="1065" y="600" width="35" height="60" as="geometry" />
        </mxCell>
        <mxCell id="tGs9OYc5qSsSg6o_rcc3-55" value="" style="endArrow=classic;html=1;rounded=0;fontColor=#000000;" edge="1" parent="1">
          <mxGeometry width="50" height="50" relative="1" as="geometry">
            <mxPoint x="710" y="700" as="sourcePoint" />
            <mxPoint x="70" y="700" as="targetPoint" />
          </mxGeometry>
        </mxCell>
        <mxCell id="tGs9OYc5qSsSg6o_rcc3-58" value="更新UI" style="text;html=1;align=center;verticalAlign=middle;resizable=0;points=[];autosize=1;strokeColor=none;fillColor=none;fontColor=#000000;" vertex="1" parent="1">
          <mxGeometry x="85" y="670" width="50" height="20" as="geometry" />
        </mxCell>
        <mxCell id="tGs9OYc5qSsSg6o_rcc3-59" value="&lt;pre style=&quot;background-color: #2b2b2b ; color: #a9b7c6 ; font-family: &amp;#34;dejavu sans mono&amp;#34; , monospace ; font-size: 12.0pt&quot;&gt;&lt;span style=&quot;color: #9876aa ; font-style: italic&quot;&gt;MSG_GATT_GETSERVICE_SUCCEED&lt;/span&gt;&lt;/pre&gt;" style="text;html=1;align=center;verticalAlign=middle;resizable=0;points=[];autosize=1;strokeColor=none;fillColor=none;fontColor=#000000;" vertex="1" parent="1">
          <mxGeometry x="350" y="655" width="280" height="50" as="geometry" />
        </mxCell>
        <mxCell id="tGs9OYc5qSsSg6o_rcc3-60" value="" style="endArrow=classic;html=1;rounded=0;fontColor=#000000;" edge="1" parent="1">
          <mxGeometry width="50" height="50" relative="1" as="geometry">
            <mxPoint x="1060" y="700" as="sourcePoint" />
            <mxPoint x="760" y="700" as="targetPoint" />
          </mxGeometry>
        </mxCell>
        <mxCell id="tGs9OYc5qSsSg6o_rcc3-61" value="&lt;pre style=&quot;background-color: #2b2b2b ; color: #a9b7c6 ; font-family: &amp;#34;dejavu sans mono&amp;#34; , monospace ; font-size: 12.0pt&quot;&gt;&lt;span style=&quot;color: #9876aa ; font-style: italic&quot;&gt;STATE_CONNECTED&lt;/span&gt;&lt;/pre&gt;" style="text;html=1;align=center;verticalAlign=middle;resizable=0;points=[];autosize=1;strokeColor=none;fillColor=none;fontColor=#000000;" vertex="1" parent="1">
          <mxGeometry x="820" y="720" width="160" height="50" as="geometry" />
        </mxCell>
        <mxCell id="tGs9OYc5qSsSg6o_rcc3-62" value="&lt;pre style=&quot;background-color: #2b2b2b ; color: #a9b7c6 ; font-family: &amp;#34;dejavu sans mono&amp;#34; , monospace ; font-size: 12.0pt&quot;&gt;BluetoothGattCallBack&lt;/pre&gt;" style="text;html=1;align=center;verticalAlign=middle;resizable=0;points=[];autosize=1;strokeColor=none;fillColor=none;fontColor=#000000;" vertex="1" parent="1">
          <mxGeometry x="790" y="690" width="220" height="50" as="geometry" />
        </mxCell>
        <mxCell id="tGs9OYc5qSsSg6o_rcc3-57" value="" style="rounded=0;whiteSpace=wrap;html=1;labelBackgroundColor=#FFFFFF;fontColor=#000000;" vertex="1" parent="1">
          <mxGeometry x="50" y="690" width="20" height="60" as="geometry" />
        </mxCell>
        <mxCell id="tGs9OYc5qSsSg6o_rcc3-63" value="" style="endArrow=none;dashed=1;html=1;dashPattern=1 3;strokeWidth=2;rounded=0;fontColor=#000000;" edge="1" parent="1" target="tGs9OYc5qSsSg6o_rcc3-57">
          <mxGeometry width="50" height="50" relative="1" as="geometry">
            <mxPoint x="60" y="950" as="sourcePoint" />
            <mxPoint x="60" y="260" as="targetPoint" />
          </mxGeometry>
        </mxCell>
        <mxCell id="tGs9OYc5qSsSg6o_rcc3-64" value="" style="endArrow=classic;html=1;rounded=0;fontColor=#000000;" edge="1" parent="1">
          <mxGeometry width="50" height="50" relative="1" as="geometry">
            <mxPoint x="80" y="740" as="sourcePoint" />
            <mxPoint x="380" y="740" as="targetPoint" />
          </mxGeometry>
        </mxCell>
        <mxCell id="tGs9OYc5qSsSg6o_rcc3-65" value="&lt;pre style=&quot;background-color: #2b2b2b ; color: #a9b7c6 ; font-family: &amp;#34;dejavu sans mono&amp;#34; , monospace ; font-size: 12.0pt&quot;&gt;sayHello&lt;/pre&gt;" style="text;html=1;align=center;verticalAlign=middle;resizable=0;points=[];autosize=1;strokeColor=none;fillColor=none;fontColor=#000000;" vertex="1" parent="1">
          <mxGeometry x="155" y="695" width="90" height="50" as="geometry" />
        </mxCell>
        <mxCell id="tGs9OYc5qSsSg6o_rcc3-70" value="&lt;pre style=&quot;background-color: #2b2b2b ; color: #a9b7c6 ; font-family: &amp;#34;dejavu sans mono&amp;#34; , monospace ; font-size: 12.0pt&quot;&gt;&lt;span style=&quot;color: #ffc66d&quot;&gt;sendData&lt;/span&gt;&lt;/pre&gt;" style="rounded=0;whiteSpace=wrap;html=1;labelBackgroundColor=#FFFFFF;fontColor=#000000;" vertex="1" parent="1">
          <mxGeometry x="340" y="760" width="120" height="60" as="geometry" />
        </mxCell>
        <mxCell id="tGs9OYc5qSsSg6o_rcc3-71" value="" style="endArrow=classic;html=1;rounded=0;fontColor=#000000;" edge="1" parent="1">
          <mxGeometry width="50" height="50" relative="1" as="geometry">
            <mxPoint x="420" y="740" as="sourcePoint" />
            <mxPoint x="470" y="780" as="targetPoint" />
            <Array as="points">
              <mxPoint x="500" y="740" />
              <mxPoint x="500" y="780" />
            </Array>
          </mxGeometry>
        </mxCell>
        <mxCell id="tGs9OYc5qSsSg6o_rcc3-72" value="" style="endArrow=classic;html=1;rounded=0;fontColor=#000000;" edge="1" parent="1">
          <mxGeometry width="50" height="50" relative="1" as="geometry">
            <mxPoint x="470" y="810" as="sourcePoint" />
            <mxPoint x="570" y="810" as="targetPoint" />
          </mxGeometry>
        </mxCell>
        <mxCell id="tGs9OYc5qSsSg6o_rcc3-73" value="" style="endArrow=classic;html=1;rounded=0;fontColor=#000000;" edge="1" parent="1">
          <mxGeometry width="50" height="50" relative="1" as="geometry">
            <mxPoint x="590" y="820" as="sourcePoint" />
            <mxPoint x="730" y="820" as="targetPoint" />
          </mxGeometry>
        </mxCell>
        <mxCell id="tGs9OYc5qSsSg6o_rcc3-74" value="&lt;pre style=&quot;background-color: #2b2b2b ; color: #a9b7c6 ; font-family: &amp;#34;dejavu sans mono&amp;#34; , monospace ; font-size: 12.0pt&quot;&gt;&lt;span style=&quot;color: #ffc66d&quot;&gt;sendGattLayerData&lt;/span&gt;&lt;/pre&gt;" style="text;html=1;align=center;verticalAlign=middle;resizable=0;points=[];autosize=1;strokeColor=none;fillColor=none;fontColor=#000000;" vertex="1" parent="1">
          <mxGeometry x="560" y="765" width="180" height="50" as="geometry" />
        </mxCell>
        <mxCell id="tGs9OYc5qSsSg6o_rcc3-75" value="" style="endArrow=classic;html=1;rounded=0;fontColor=#000000;" edge="1" parent="1">
          <mxGeometry width="50" height="50" relative="1" as="geometry">
            <mxPoint x="750" y="840" as="sourcePoint" />
            <mxPoint x="1070" y="840" as="targetPoint" />
          </mxGeometry>
        </mxCell>
        <mxCell id="tGs9OYc5qSsSg6o_rcc3-76" value="&lt;pre style=&quot;background-color: #2b2b2b ; color: #a9b7c6 ; font-family: &amp;#34;dejavu sans mono&amp;#34; , monospace ; font-size: 12.0pt&quot;&gt;&lt;span style=&quot;color: #ffc66d&quot;&gt;sendData&lt;/span&gt;&lt;/pre&gt;" style="text;html=1;align=center;verticalAlign=middle;resizable=0;points=[];autosize=1;strokeColor=none;fillColor=none;fontColor=#000000;" vertex="1" parent="1">
          <mxGeometry x="865" y="790" width="90" height="50" as="geometry" />
        </mxCell>
        <mxCell id="tGs9OYc5qSsSg6o_rcc3-77" value="" style="rounded=0;whiteSpace=wrap;html=1;labelBackgroundColor=#FFFFFF;fontColor=#000000;" vertex="1" parent="1">
          <mxGeometry x="1065" y="810" width="35" height="60" as="geometry" />
        </mxCell>
        <mxCell id="tGs9OYc5qSsSg6o_rcc3-78" value="&lt;pre style=&quot;background-color: #2b2b2b ; color: #a9b7c6 ; font-family: &amp;#34;dejavu sans mono&amp;#34; , monospace ; font-size: 12.0pt&quot;&gt;&lt;span style=&quot;color: #9876aa&quot;&gt;mBluetoothGatt&lt;/span&gt;.writeCharacteristic&lt;/pre&gt;" style="text;html=1;align=center;verticalAlign=middle;resizable=0;points=[];autosize=1;strokeColor=none;fillColor=none;fontColor=#000000;" vertex="1" parent="1">
          <mxGeometry x="1100" y="810" width="340" height="50" as="geometry" />
        </mxCell>
        <mxCell id="tGs9OYc5qSsSg6o_rcc3-79" value="" style="endArrow=classic;html=1;rounded=0;fontColor=#000000;" edge="1" parent="1">
          <mxGeometry width="50" height="50" relative="1" as="geometry">
            <mxPoint x="1060" y="940" as="sourcePoint" />
            <mxPoint x="770" y="940" as="targetPoint" />
          </mxGeometry>
        </mxCell>
        <mxCell id="tGs9OYc5qSsSg6o_rcc3-80" value="&lt;pre style=&quot;background-color: #2b2b2b ; color: #a9b7c6 ; font-family: &amp;#34;dejavu sans mono&amp;#34; , monospace ; font-size: 12.0pt&quot;&gt;onDataReceive&lt;/pre&gt;" style="text;html=1;align=center;verticalAlign=middle;resizable=0;points=[];autosize=1;strokeColor=none;fillColor=none;fontColor=#000000;" vertex="1" parent="1">
          <mxGeometry x="830" y="895" width="140" height="50" as="geometry" />
        </mxCell>
        <mxCell id="tGs9OYc5qSsSg6o_rcc3-81" value="" style="endArrow=classic;html=1;rounded=0;fontColor=#000000;" edge="1" parent="1">
          <mxGeometry width="50" height="50" relative="1" as="geometry">
            <mxPoint x="730" y="940" as="sourcePoint" />
            <mxPoint x="410" y="940" as="targetPoint" />
          </mxGeometry>
        </mxCell>
        <mxCell id="tGs9OYc5qSsSg6o_rcc3-82" value="&lt;pre style=&quot;background-color: #2b2b2b ; color: #a9b7c6 ; font-family: &amp;#34;dejavu sans mono&amp;#34; , monospace ; font-size: 12.0pt&quot;&gt;&lt;span style=&quot;color: #9876aa ; font-style: italic&quot;&gt;UUID_HELLO&lt;/span&gt;&lt;/pre&gt;" style="text;html=1;align=center;verticalAlign=middle;resizable=0;points=[];autosize=1;strokeColor=none;fillColor=none;fontColor=#000000;" vertex="1" parent="1">
          <mxGeometry x="410" y="895" width="110" height="50" as="geometry" />
        </mxCell>
        <mxCell id="tGs9OYc5qSsSg6o_rcc3-83" value="" style="endArrow=classic;html=1;rounded=0;fontColor=#000000;" edge="1" parent="1">
          <mxGeometry width="50" height="50" relative="1" as="geometry">
            <mxPoint x="380" y="940" as="sourcePoint" />
            <mxPoint x="230" y="940" as="targetPoint" />
          </mxGeometry>
        </mxCell>
        <mxCell id="tGs9OYc5qSsSg6o_rcc3-84" value="&lt;pre style=&quot;background-color: #2b2b2b ; color: #a9b7c6 ; font-family: &amp;#34;dejavu sans mono&amp;#34; , monospace ; font-size: 12.0pt&quot;&gt;&lt;span style=&quot;color: #9876aa ; font-style: italic&quot;&gt;MSG_GET_HELLO&lt;/span&gt;&lt;/pre&gt;" style="text;html=1;align=center;verticalAlign=middle;resizable=0;points=[];autosize=1;strokeColor=none;fillColor=none;fontColor=#000000;" vertex="1" parent="1">
          <mxGeometry x="240" y="885" width="140" height="50" as="geometry" />
        </mxCell>
        <mxCell id="tGs9OYc5qSsSg6o_rcc3-85" value="" style="endArrow=classic;html=1;rounded=0;fontColor=#000000;" edge="1" parent="1">
          <mxGeometry width="50" height="50" relative="1" as="geometry">
            <mxPoint x="200" y="935" as="sourcePoint" />
            <mxPoint x="80" y="935" as="targetPoint" />
          </mxGeometry>
        </mxCell>
        <mxCell id="tGs9OYc5qSsSg6o_rcc3-86" value="连接成功" style="text;html=1;align=center;verticalAlign=middle;resizable=0;points=[];autosize=1;strokeColor=none;fillColor=none;fontColor=#000000;" vertex="1" parent="1">
          <mxGeometry x="90" y="910" width="60" height="20" as="geometry" />
        </mxCell>
        <mxCell id="tGs9OYc5qSsSg6o_rcc3-87" value="" style="rounded=0;whiteSpace=wrap;html=1;labelBackgroundColor=#FFFFFF;fontColor=#000000;" vertex="1" parent="1">
          <mxGeometry x="45" y="920" width="30" height="60" as="geometry" />
        </mxCell>
        <mxCell id="tGs9OYc5qSsSg6o_rcc3-89" value="" style="endArrow=classic;html=1;rounded=0;fontColor=#000000;" edge="1" parent="1">
          <mxGeometry width="50" height="50" relative="1" as="geometry">
            <mxPoint x="59.5" y="990" as="sourcePoint" />
            <mxPoint x="59.5" y="1030" as="targetPoint" />
          </mxGeometry>
        </mxCell>
        <mxCell id="tGs9OYc5qSsSg6o_rcc3-91" value="&lt;pre style=&quot;background-color: #2b2b2b ; color: #a9b7c6 ; font-family: &amp;#34;dejavu sans mono&amp;#34; , monospace ; font-size: 12.0pt&quot;&gt;ConnectWifiActivity&lt;/pre&gt;" style="rounded=1;whiteSpace=wrap;html=1;labelBackgroundColor=#FFFFFF;fontColor=#000000;" vertex="1" parent="1">
          <mxGeometry y="1040" width="190" height="60" as="geometry" />
        </mxCell>
        <mxCell id="tGs9OYc5qSsSg6o_rcc3-92" value="" style="endArrow=none;dashed=1;html=1;dashPattern=1 3;strokeWidth=2;rounded=0;fontColor=#000000;" edge="1" parent="1">
          <mxGeometry width="50" height="50" relative="1" as="geometry">
            <mxPoint x="80" y="1540" as="sourcePoint" />
            <mxPoint x="80" y="1100" as="targetPoint" />
          </mxGeometry>
        </mxCell>
        <mxCell id="tGs9OYc5qSsSg6o_rcc3-93" value="" style="endArrow=classic;html=1;rounded=0;fontColor=#000000;" edge="1" parent="1">
          <mxGeometry width="50" height="50" relative="1" as="geometry">
            <mxPoint x="80" y="1160" as="sourcePoint" />
            <mxPoint x="220" y="1160" as="targetPoint" />
            <Array as="points">
              <mxPoint x="110" y="1160" />
              <mxPoint x="150" y="1160" />
            </Array>
          </mxGeometry>
        </mxCell>
        <mxCell id="tGs9OYc5qSsSg6o_rcc3-94" value="&lt;pre style=&quot;background-color: #2b2b2b ; color: #a9b7c6 ; font-family: &amp;#34;dejavu sans mono&amp;#34; , monospace ; font-size: 12.0pt&quot;&gt;&lt;span style=&quot;color: #ffc66d&quot;&gt;syncWifiState&lt;/span&gt;&lt;/pre&gt;" style="text;html=1;align=center;verticalAlign=middle;resizable=0;points=[];autosize=1;strokeColor=none;fillColor=none;fontColor=#000000;" vertex="1" parent="1">
          <mxGeometry x="70" y="1115" width="140" height="50" as="geometry" />
        </mxCell>
        <mxCell id="tGs9OYc5qSsSg6o_rcc3-95" value="" style="endArrow=classic;html=1;rounded=0;fontColor=#000000;" edge="1" parent="1">
          <mxGeometry width="50" height="50" relative="1" as="geometry">
            <mxPoint x="230" y="1180" as="sourcePoint" />
            <mxPoint x="1070" y="1180" as="targetPoint" />
          </mxGeometry>
        </mxCell>
        <mxCell id="tGs9OYc5qSsSg6o_rcc3-96" value="&lt;pre style=&quot;background-color: #2b2b2b ; color: #a9b7c6 ; font-family: &amp;#34;dejavu sans mono&amp;#34; , monospace ; font-size: 12.0pt&quot;&gt;&lt;span style=&quot;color: #9876aa ; font-style: italic&quot;&gt;CMD_GET_WIFI_STATE&lt;/span&gt;&lt;/pre&gt;" style="text;html=1;align=center;verticalAlign=middle;resizable=0;points=[];autosize=1;strokeColor=none;fillColor=none;fontColor=#000000;" vertex="1" parent="1">
          <mxGeometry x="800" y="1115" width="190" height="50" as="geometry" />
        </mxCell>
        <mxCell id="tGs9OYc5qSsSg6o_rcc3-97" value="" style="endArrow=classic;html=1;rounded=0;fontColor=#000000;" edge="1" parent="1">
          <mxGeometry width="50" height="50" relative="1" as="geometry">
            <mxPoint x="1060" y="1230" as="sourcePoint" />
            <mxPoint x="100" y="1230" as="targetPoint" />
          </mxGeometry>
        </mxCell>
        <mxCell id="tGs9OYc5qSsSg6o_rcc3-98" value="&lt;pre style=&quot;background-color: #2b2b2b ; color: #a9b7c6 ; font-family: &amp;#34;dejavu sans mono&amp;#34; , monospace ; font-size: 12.0pt&quot;&gt;&lt;span style=&quot;color: #9876aa ; font-style: italic&quot;&gt;WIFI_STATE&lt;/span&gt;&lt;/pre&gt;" style="text;html=1;align=center;verticalAlign=middle;resizable=0;points=[];autosize=1;strokeColor=none;fillColor=none;fontColor=#000000;" vertex="1" parent="1">
          <mxGeometry x="110" y="1180" width="110" height="50" as="geometry" />
        </mxCell>
        <mxCell id="tGs9OYc5qSsSg6o_rcc3-99" value="" style="endArrow=classic;html=1;rounded=0;fontColor=#000000;" edge="1" parent="1">
          <mxGeometry width="50" height="50" relative="1" as="geometry">
            <mxPoint x="90" y="1280" as="sourcePoint" />
            <mxPoint x="210" y="1280" as="targetPoint" />
          </mxGeometry>
        </mxCell>
        <mxCell id="tGs9OYc5qSsSg6o_rcc3-100" value="&lt;pre style=&quot;background-color: #2b2b2b ; color: #a9b7c6 ; font-family: &amp;#34;dejavu sans mono&amp;#34; , monospace ; font-size: 12.0pt&quot;&gt;wifiScan&lt;/pre&gt;" style="text;html=1;align=center;verticalAlign=middle;resizable=0;points=[];autosize=1;strokeColor=none;fillColor=none;fontColor=#000000;" vertex="1" parent="1">
          <mxGeometry x="100" y="1240" width="90" height="50" as="geometry" />
        </mxCell>
        <mxCell id="tGs9OYc5qSsSg6o_rcc3-101" value="" style="endArrow=classic;html=1;rounded=0;fontColor=#000000;" edge="1" parent="1">
          <mxGeometry width="50" height="50" relative="1" as="geometry">
            <mxPoint x="230" y="1300" as="sourcePoint" />
            <mxPoint x="1060" y="1300" as="targetPoint" />
          </mxGeometry>
        </mxCell>
        <mxCell id="tGs9OYc5qSsSg6o_rcc3-102" value="&lt;pre style=&quot;background-color: #2b2b2b ; color: #a9b7c6 ; font-family: &amp;#34;dejavu sans mono&amp;#34; , monospace ; font-size: 12.0pt&quot;&gt;&lt;span style=&quot;color: #9876aa ; font-style: italic&quot;&gt;CMD_GET_SCAN_WIFILIST&lt;/span&gt;&lt;/pre&gt;" style="text;html=1;align=center;verticalAlign=middle;resizable=0;points=[];autosize=1;strokeColor=none;fillColor=none;fontColor=#000000;" vertex="1" parent="1">
          <mxGeometry x="785" y="1250" width="220" height="50" as="geometry" />
        </mxCell>
        <mxCell id="tGs9OYc5qSsSg6o_rcc3-103" value="" style="endArrow=classic;html=1;rounded=0;fontColor=#000000;" edge="1" parent="1">
          <mxGeometry width="50" height="50" relative="1" as="geometry">
            <mxPoint x="1070" y="1350" as="sourcePoint" />
            <mxPoint x="90" y="1350" as="targetPoint" />
          </mxGeometry>
        </mxCell>
        <mxCell id="tGs9OYc5qSsSg6o_rcc3-104" value="&lt;pre style=&quot;background-color: #2b2b2b ; color: #a9b7c6 ; font-family: &amp;#34;dejavu sans mono&amp;#34; , monospace ; font-size: 12.0pt&quot;&gt;&lt;span style=&quot;color: #9876aa ; font-style: italic&quot;&gt;WIFI_LIST_CHANGE&lt;/span&gt;&lt;/pre&gt;" style="text;html=1;align=center;verticalAlign=middle;resizable=0;points=[];autosize=1;strokeColor=none;fillColor=none;fontColor=#000000;" vertex="1" parent="1">
          <mxGeometry x="85" y="1300" width="170" height="50" as="geometry" />
        </mxCell>
        <mxCell id="tGs9OYc5qSsSg6o_rcc3-105" value="UI" style="rounded=0;whiteSpace=wrap;html=1;labelBackgroundColor=#FFFFFF;fontColor=#000000;" vertex="1" parent="1">
          <mxGeometry x="50" y="1350" width="40" height="100" as="geometry" />
        </mxCell>
        <mxCell id="tGs9OYc5qSsSg6o_rcc3-106" value="" style="endArrow=classic;html=1;rounded=0;fontColor=#000000;" edge="1" parent="1">
          <mxGeometry width="50" height="50" relative="1" as="geometry">
            <mxPoint x="90" y="1440" as="sourcePoint" />
            <mxPoint x="210" y="1440" as="targetPoint" />
          </mxGeometry>
        </mxCell>
        <mxCell id="tGs9OYc5qSsSg6o_rcc3-107" value="&lt;pre style=&quot;background-color: #2b2b2b ; color: #a9b7c6 ; font-family: &amp;#34;dejavu sans mono&amp;#34; , monospace ; font-size: 12.0pt&quot;&gt;wifiConnect&lt;/pre&gt;" style="text;html=1;align=center;verticalAlign=middle;resizable=0;points=[];autosize=1;strokeColor=none;fillColor=none;fontColor=#000000;" vertex="1" parent="1">
          <mxGeometry x="100" y="1395" width="120" height="50" as="geometry" />
        </mxCell>
        <mxCell id="tGs9OYc5qSsSg6o_rcc3-108" value="" style="endArrow=classic;html=1;rounded=0;fontColor=#000000;" edge="1" parent="1">
          <mxGeometry width="50" height="50" relative="1" as="geometry">
            <mxPoint x="230" y="1460" as="sourcePoint" />
            <mxPoint x="1070" y="1460" as="targetPoint" />
          </mxGeometry>
        </mxCell>
        <mxCell id="tGs9OYc5qSsSg6o_rcc3-109" value="&lt;pre style=&quot;background-color: #2b2b2b ; color: #a9b7c6 ; font-family: &amp;#34;dejavu sans mono&amp;#34; , monospace ; font-size: 12.0pt&quot;&gt;&lt;span style=&quot;color: #9876aa ; font-style: italic&quot;&gt;UUID_CONFIG_ACCESSPOINT&lt;/span&gt;&lt;/pre&gt;" style="text;html=1;align=center;verticalAlign=middle;resizable=0;points=[];autosize=1;strokeColor=none;fillColor=none;fontColor=#000000;" vertex="1" parent="1">
          <mxGeometry x="785" y="1400" width="240" height="50" as="geometry" />
        </mxCell>
        <mxCell id="tGs9OYc5qSsSg6o_rcc3-110" value="&lt;pre style=&quot;background-color: #2b2b2b ; color: #a9b7c6 ; font-family: &amp;#34;dejavu sans mono&amp;#34; , monospace ; font-size: 12.0pt&quot;&gt;sendData&lt;/pre&gt;" style="text;html=1;align=center;verticalAlign=middle;resizable=0;points=[];autosize=1;strokeColor=none;fillColor=none;fontColor=#000000;" vertex="1" parent="1">
          <mxGeometry x="275" y="1410" width="90" height="50" as="geometry" />
        </mxCell>
        <mxCell id="tGs9OYc5qSsSg6o_rcc3-111" value="&lt;pre style=&quot;background-color: #2b2b2b ; color: #a9b7c6 ; font-family: &amp;#34;dejavu sans mono&amp;#34; , monospace ; font-size: 12.0pt&quot;&gt;sendData&lt;/pre&gt;" style="text;html=1;align=center;verticalAlign=middle;resizable=0;points=[];autosize=1;strokeColor=none;fillColor=none;fontColor=#000000;" vertex="1" parent="1">
          <mxGeometry x="275" y="1250" width="90" height="50" as="geometry" />
        </mxCell>
        <mxCell id="tGs9OYc5qSsSg6o_rcc3-112" value="&lt;pre style=&quot;background-color: #2b2b2b ; color: #a9b7c6 ; font-family: &amp;#34;dejavu sans mono&amp;#34; , monospace ; font-size: 12.0pt&quot;&gt;sendData&lt;/pre&gt;" style="text;html=1;align=center;verticalAlign=middle;resizable=0;points=[];autosize=1;strokeColor=none;fillColor=none;fontColor=#000000;" vertex="1" parent="1">
          <mxGeometry x="275" y="1130" width="90" height="50" as="geometry" />
        </mxCell>
        <mxCell id="tGs9OYc5qSsSg6o_rcc3-113" value="" style="endArrow=classic;html=1;rounded=0;fontColor=#000000;" edge="1" parent="1">
          <mxGeometry width="50" height="50" relative="1" as="geometry">
            <mxPoint x="1070" y="1520" as="sourcePoint" />
            <mxPoint x="90" y="1520" as="targetPoint" />
          </mxGeometry>
        </mxCell>
        <mxCell id="tGs9OYc5qSsSg6o_rcc3-114" value="recivedata" style="text;html=1;align=center;verticalAlign=middle;resizable=0;points=[];autosize=1;strokeColor=none;fillColor=none;fontColor=#000000;" vertex="1" parent="1">
          <mxGeometry x="825" y="1490" width="70" height="20" as="geometry" />
        </mxCell>
        <mxCell id="tGs9OYc5qSsSg6o_rcc3-115" value="&lt;pre style=&quot;background-color: #2b2b2b ; color: #a9b7c6 ; font-family: &amp;#34;dejavu sans mono&amp;#34; , monospace ; font-size: 12.0pt&quot;&gt;&lt;span style=&quot;color: #9876aa ; font-style: italic&quot;&gt;WIFI_STATE&lt;/span&gt;&lt;/pre&gt;" style="text;html=1;align=center;verticalAlign=middle;resizable=0;points=[];autosize=1;strokeColor=none;fillColor=none;fontColor=#000000;" vertex="1" parent="1">
          <mxGeometry x="245" y="1475" width="110" height="50" as="geometry" />
        </mxCell>
        <mxCell id="tGs9OYc5qSsSg6o_rcc3-116" value="wifi connect" style="rounded=0;whiteSpace=wrap;html=1;labelBackgroundColor=#FFFFFF;fontColor=#000000;" vertex="1" parent="1">
          <mxGeometry x="27.5" y="1510" width="65" height="60" as="geometry" />
        </mxCell>
        <mxCell id="tGs9OYc5qSsSg6o_rcc3-117" value="" style="endArrow=classic;html=1;rounded=0;fontColor=#000000;" edge="1" parent="1">
          <mxGeometry width="50" height="50" relative="1" as="geometry">
            <mxPoint x="70" y="1580" as="sourcePoint" />
            <mxPoint x="70" y="1620" as="targetPoint" />
          </mxGeometry>
        </mxCell>
        <mxCell id="tGs9OYc5qSsSg6o_rcc3-118" value="&lt;pre style=&quot;background-color: #2b2b2b ; color: #a9b7c6 ; font-family: &amp;#34;dejavu sans mono&amp;#34; , monospace ; font-size: 12.0pt&quot;&gt;LoginActivity&lt;/pre&gt;" style="rounded=1;whiteSpace=wrap;html=1;labelBackgroundColor=#FFFFFF;fontColor=#000000;" vertex="1" parent="1">
          <mxGeometry y="1630" width="140" height="60" as="geometry" />
        </mxCell>
        <mxCell id="tGs9OYc5qSsSg6o_rcc3-119" value="" style="endArrow=none;dashed=1;html=1;dashPattern=1 3;strokeWidth=2;rounded=0;fontColor=#000000;startArrow=none;" edge="1" parent="1" source="tGs9OYc5qSsSg6o_rcc3-145">
          <mxGeometry width="50" height="50" relative="1" as="geometry">
            <mxPoint x="50" y="2220" as="sourcePoint" />
            <mxPoint x="49" y="1700" as="targetPoint" />
          </mxGeometry>
        </mxCell>
        <mxCell id="tGs9OYc5qSsSg6o_rcc3-120" value="" style="endArrow=classic;html=1;rounded=0;fontColor=#000000;" edge="1" parent="1">
          <mxGeometry width="50" height="50" relative="1" as="geometry">
            <mxPoint x="60" y="1740" as="sourcePoint" />
            <mxPoint x="200" y="1740" as="targetPoint" />
          </mxGeometry>
        </mxCell>
        <mxCell id="tGs9OYc5qSsSg6o_rcc3-121" value="&lt;pre style=&quot;background-color: #2b2b2b ; color: #a9b7c6 ; font-family: &amp;#34;dejavu sans mono&amp;#34; , monospace ; font-size: 12.0pt&quot;&gt;isLogin&lt;/pre&gt;" style="text;html=1;align=center;verticalAlign=middle;resizable=0;points=[];autosize=1;strokeColor=none;fillColor=none;fontColor=#000000;" vertex="1" parent="1">
          <mxGeometry x="70" y="1695" width="80" height="50" as="geometry" />
        </mxCell>
        <mxCell id="tGs9OYc5qSsSg6o_rcc3-122" value="" style="endArrow=classic;html=1;rounded=0;fontColor=#000000;" edge="1" parent="1">
          <mxGeometry width="50" height="50" relative="1" as="geometry">
            <mxPoint x="220" y="1770" as="sourcePoint" />
            <mxPoint x="1080" y="1770" as="targetPoint" />
          </mxGeometry>
        </mxCell>
        <mxCell id="tGs9OYc5qSsSg6o_rcc3-123" value="&lt;pre style=&quot;background-color: #2b2b2b ; color: #a9b7c6 ; font-family: &amp;#34;dejavu sans mono&amp;#34; , monospace ; font-size: 12.0pt&quot;&gt;sendData&lt;/pre&gt;" style="text;html=1;align=center;verticalAlign=middle;resizable=0;points=[];autosize=1;strokeColor=none;fillColor=none;fontColor=#000000;" vertex="1" parent="1">
          <mxGeometry x="265" y="1725" width="90" height="50" as="geometry" />
        </mxCell>
        <mxCell id="tGs9OYc5qSsSg6o_rcc3-124" value="&lt;pre style=&quot;background-color: #2b2b2b ; color: #a9b7c6 ; font-family: &amp;#34;dejavu sans mono&amp;#34; , monospace ; font-size: 12.0pt&quot;&gt;&lt;span style=&quot;color: #9876aa ; font-style: italic&quot;&gt;CMD_IS_LOGIN&lt;/span&gt;&lt;/pre&gt;" style="text;html=1;align=center;verticalAlign=middle;resizable=0;points=[];autosize=1;strokeColor=none;fillColor=none;fontColor=#000000;" vertex="1" parent="1">
          <mxGeometry x="805" y="1715" width="130" height="50" as="geometry" />
        </mxCell>
        <mxCell id="tGs9OYc5qSsSg6o_rcc3-125" value="" style="endArrow=classic;html=1;rounded=0;fontColor=#000000;" edge="1" parent="1">
          <mxGeometry width="50" height="50" relative="1" as="geometry">
            <mxPoint x="1060" y="1820" as="sourcePoint" />
            <mxPoint x="70" y="1820" as="targetPoint" />
          </mxGeometry>
        </mxCell>
        <mxCell id="tGs9OYc5qSsSg6o_rcc3-126" value="recivedata" style="text;html=1;align=center;verticalAlign=middle;resizable=0;points=[];autosize=1;strokeColor=none;fillColor=none;fontColor=#000000;" vertex="1" parent="1">
          <mxGeometry x="860" y="1790" width="70" height="20" as="geometry" />
        </mxCell>
        <mxCell id="tGs9OYc5qSsSg6o_rcc3-127" value="&lt;pre style=&quot;background-color: #2b2b2b ; color: #a9b7c6 ; font-family: &amp;#34;dejavu sans mono&amp;#34; , monospace ; font-size: 12.0pt&quot;&gt;&lt;span style=&quot;color: #9876aa ; font-style: italic&quot;&gt;MSG_IS_LOGIN&lt;/span&gt;&lt;/pre&gt;" style="text;html=1;align=center;verticalAlign=middle;resizable=0;points=[];autosize=1;strokeColor=none;fillColor=none;fontColor=#000000;" vertex="1" parent="1">
          <mxGeometry x="65" y="1775" width="130" height="50" as="geometry" />
        </mxCell>
        <mxCell id="tGs9OYc5qSsSg6o_rcc3-128" value="&lt;div&gt;&lt;font color=&quot;#006600&quot;&gt;登录&lt;/font&gt;&lt;/div&gt;&lt;div&gt;&lt;br&gt;&lt;/div&gt;&lt;div&gt;&lt;font color=&quot;#FF3333&quot;&gt;未登录&lt;/font&gt;&lt;/div&gt;" style="rounded=0;whiteSpace=wrap;html=1;labelBackgroundColor=#FFFFFF;fontColor=#000000;" vertex="1" parent="1">
          <mxGeometry x="20" y="1810" width="50" height="240" as="geometry" />
        </mxCell>
        <mxCell id="tGs9OYc5qSsSg6o_rcc3-129" value="" style="endArrow=classic;html=1;rounded=0;fontColor=#000000;fillColor=#d5e8d4;strokeColor=#82b366;" edge="1" parent="1">
          <mxGeometry width="50" height="50" relative="1" as="geometry">
            <mxPoint x="80" y="1880" as="sourcePoint" />
            <mxPoint x="200" y="1880" as="targetPoint" />
          </mxGeometry>
        </mxCell>
        <mxCell id="tGs9OYc5qSsSg6o_rcc3-130" value="&lt;pre style=&quot;background-color: #2b2b2b ; color: #a9b7c6 ; font-family: &amp;#34;dejavu sans mono&amp;#34; , monospace ; font-size: 12.0pt&quot;&gt;getUserName&lt;/pre&gt;" style="text;html=1;align=center;verticalAlign=middle;resizable=0;points=[];autosize=1;strokeColor=none;fillColor=none;fontColor=#000000;" vertex="1" parent="1">
          <mxGeometry x="80" y="1825" width="120" height="50" as="geometry" />
        </mxCell>
        <mxCell id="tGs9OYc5qSsSg6o_rcc3-131" value="" style="endArrow=classic;html=1;rounded=0;fontColor=#000000;fillColor=#d5e8d4;gradientColor=#97d077;strokeColor=#82b366;" edge="1" parent="1">
          <mxGeometry width="50" height="50" relative="1" as="geometry">
            <mxPoint x="220" y="1890" as="sourcePoint" />
            <mxPoint x="1070" y="1890" as="targetPoint" />
          </mxGeometry>
        </mxCell>
        <mxCell id="tGs9OYc5qSsSg6o_rcc3-132" value="&lt;pre style=&quot;background-color: #2b2b2b ; color: #a9b7c6 ; font-family: &amp;#34;dejavu sans mono&amp;#34; , monospace ; font-size: 12.0pt&quot;&gt;sendData&lt;/pre&gt;" style="text;html=1;align=center;verticalAlign=middle;resizable=0;points=[];autosize=1;strokeColor=none;fillColor=none;fontColor=#000000;" vertex="1" parent="1">
          <mxGeometry x="265" y="1845" width="90" height="50" as="geometry" />
        </mxCell>
        <mxCell id="tGs9OYc5qSsSg6o_rcc3-133" value="&lt;pre style=&quot;background-color: #2b2b2b ; color: #a9b7c6 ; font-family: &amp;#34;dejavu sans mono&amp;#34; , monospace ; font-size: 12.0pt&quot;&gt;&lt;span style=&quot;color: #9876aa ; font-style: italic&quot;&gt;CMD_GET_USER_NAME&lt;/span&gt;&lt;/pre&gt;" style="text;html=1;align=center;verticalAlign=middle;resizable=0;points=[];autosize=1;strokeColor=none;fillColor=none;fontColor=#000000;" vertex="1" parent="1">
          <mxGeometry x="760" y="1845" width="180" height="50" as="geometry" />
        </mxCell>
        <mxCell id="tGs9OYc5qSsSg6o_rcc3-134" value="" style="endArrow=classic;html=1;rounded=0;fontColor=#000000;fillColor=#d5e8d4;strokeColor=#82b366;" edge="1" parent="1">
          <mxGeometry width="50" height="50" relative="1" as="geometry">
            <mxPoint x="1060" y="1960" as="sourcePoint" />
            <mxPoint x="170" y="1960" as="targetPoint" />
          </mxGeometry>
        </mxCell>
        <mxCell id="tGs9OYc5qSsSg6o_rcc3-135" value="&lt;pre style=&quot;background-color: #2b2b2b ; color: #a9b7c6 ; font-family: &amp;#34;dejavu sans mono&amp;#34; , monospace ; font-size: 12.0pt&quot;&gt;&lt;span style=&quot;color: #9876aa ; font-style: italic&quot;&gt;MSG_GET_USER_NAME&lt;/span&gt;&lt;/pre&gt;" style="text;html=1;align=center;verticalAlign=middle;resizable=0;points=[];autosize=1;strokeColor=none;fillColor=none;fontColor=#000000;" vertex="1" parent="1">
          <mxGeometry x="220" y="1905" width="180" height="50" as="geometry" />
        </mxCell>
        <mxCell id="tGs9OYc5qSsSg6o_rcc3-137" value="" style="endArrow=classic;html=1;rounded=0;fontColor=#000000;fillColor=#e51400;strokeColor=#B20000;" edge="1" parent="1">
          <mxGeometry width="50" height="50" relative="1" as="geometry">
            <mxPoint x="80" y="2040" as="sourcePoint" />
            <mxPoint x="200" y="2040" as="targetPoint" />
          </mxGeometry>
        </mxCell>
        <mxCell id="tGs9OYc5qSsSg6o_rcc3-138" value="&lt;p style=&quot;line-height: 1&quot; align=&quot;left&quot;&gt;&lt;/p&gt;&lt;div align=&quot;left&quot;&gt;&lt;pre style=&quot;font-family: &amp;#34;dejavu sans mono&amp;#34; , monospace&quot;&gt;&lt;span style=&quot;background-color: rgb(255 , 255 , 255)&quot;&gt;loginWithSession&lt;/span&gt;&lt;/pre&gt;&lt;/div&gt;&lt;p align=&quot;left&quot;&gt;&lt;/p&gt;" style="text;html=1;align=left;verticalAlign=middle;resizable=0;points=[];autosize=1;strokeColor=none;fillColor=none;fontColor=#000000;" vertex="1" parent="1">
          <mxGeometry x="76.25" y="2000" width="130" height="40" as="geometry" />
        </mxCell>
        <mxCell id="tGs9OYc5qSsSg6o_rcc3-140" value="" style="endArrow=classic;html=1;rounded=0;fontColor=#006600;fillColor=#e51400;strokeColor=#B20000;" edge="1" parent="1">
          <mxGeometry width="50" height="50" relative="1" as="geometry">
            <mxPoint x="220" y="2060" as="sourcePoint" />
            <mxPoint x="1070" y="2060" as="targetPoint" />
          </mxGeometry>
        </mxCell>
        <mxCell id="tGs9OYc5qSsSg6o_rcc3-141" value="&lt;pre style=&quot;background-color: #2b2b2b ; color: #a9b7c6 ; font-family: &amp;#34;dejavu sans mono&amp;#34; , monospace ; font-size: 12.0pt&quot;&gt;&lt;span style=&quot;color: #9876aa ; font-style: italic&quot;&gt;UUID_LOGIN_WITH_SESSION&lt;/span&gt;&lt;/pre&gt;" style="text;html=1;align=center;verticalAlign=middle;resizable=0;points=[];autosize=1;strokeColor=none;fillColor=none;fontColor=#006600;" vertex="1" parent="1">
          <mxGeometry x="760" y="2005" width="240" height="50" as="geometry" />
        </mxCell>
        <mxCell id="tGs9OYc5qSsSg6o_rcc3-142" value="&lt;pre style=&quot;background-color: #2b2b2b ; color: #a9b7c6 ; font-family: &amp;#34;dejavu sans mono&amp;#34; , monospace ; font-size: 12.0pt&quot;&gt;sendData&lt;/pre&gt;" style="text;html=1;align=center;verticalAlign=middle;resizable=0;points=[];autosize=1;strokeColor=none;fillColor=none;fontColor=#006600;" vertex="1" parent="1">
          <mxGeometry x="265" y="2005" width="90" height="50" as="geometry" />
        </mxCell>
        <mxCell id="tGs9OYc5qSsSg6o_rcc3-143" value="" style="endArrow=classic;html=1;rounded=0;fontColor=#006600;" edge="1" parent="1">
          <mxGeometry width="50" height="50" relative="1" as="geometry">
            <mxPoint x="1060" y="2120" as="sourcePoint" />
            <mxPoint x="70" y="2120" as="targetPoint" />
          </mxGeometry>
        </mxCell>
        <mxCell id="tGs9OYc5qSsSg6o_rcc3-144" value="&lt;pre style=&quot;background-color: #2b2b2b ; color: #a9b7c6 ; font-family: &amp;#34;dejavu sans mono&amp;#34; , monospace ; font-size: 12.0pt&quot;&gt;&lt;span style=&quot;color: #9876aa ; font-style: italic&quot;&gt;MSG_LOGIN_SUCCESS&lt;/span&gt;&lt;/pre&gt;" style="text;html=1;align=center;verticalAlign=middle;resizable=0;points=[];autosize=1;strokeColor=none;fillColor=none;fontColor=#006600;" vertex="1" parent="1">
          <mxGeometry x="770" y="2075" width="180" height="50" as="geometry" />
        </mxCell>
        <mxCell id="tGs9OYc5qSsSg6o_rcc3-145" value="&lt;font color=&quot;#000000&quot;&gt;更新UI&lt;/font&gt;" style="rounded=0;whiteSpace=wrap;html=1;labelBackgroundColor=#FFFFFF;fontColor=#006600;" vertex="1" parent="1">
          <mxGeometry x="10" y="2110" width="60" height="60" as="geometry" />
        </mxCell>
        <mxCell id="tGs9OYc5qSsSg6o_rcc3-146" value="" style="endArrow=none;dashed=1;html=1;dashPattern=1 3;strokeWidth=2;rounded=0;fontColor=#000000;" edge="1" parent="1" target="tGs9OYc5qSsSg6o_rcc3-145">
          <mxGeometry width="50" height="50" relative="1" as="geometry">
            <mxPoint x="40" y="2240" as="sourcePoint" />
            <mxPoint x="49" y="1700" as="targetPoint" />
          </mxGeometry>
        </mxCell>
        <mxCell id="tGs9OYc5qSsSg6o_rcc3-147" value="" style="rounded=0;whiteSpace=wrap;html=1;labelBackgroundColor=#FFFFFF;fontColor=#000000;" vertex="1" parent="1">
          <mxGeometry x="120" y="1945" width="42.5" height="35" as="geometry" />
        </mxCell>
        <mxCell id="tGs9OYc5qSsSg6o_rcc3-148" value="" style="endArrow=classic;html=1;rounded=0;fontColor=#000000;fillColor=#e51400;strokeColor=#B20000;" edge="1" parent="1">
          <mxGeometry width="50" height="50" relative="1" as="geometry">
            <mxPoint x="110" y="1960" as="sourcePoint" />
            <mxPoint x="80" y="1960" as="targetPoint" />
          </mxGeometry>
        </mxCell>
        <mxCell id="tGs9OYc5qSsSg6o_rcc3-149" value="" style="endArrow=classic;html=1;rounded=0;fontColor=#000000;exitX=0.5;exitY=1;exitDx=0;exitDy=0;fillColor=#d5e8d4;gradientColor=#97d077;strokeColor=#82b366;" edge="1" parent="1" source="tGs9OYc5qSsSg6o_rcc3-147">
          <mxGeometry width="50" height="50" relative="1" as="geometry">
            <mxPoint x="110" y="2120" as="sourcePoint" />
            <mxPoint x="141" y="2120" as="targetPoint" />
          </mxGeometry>
        </mxCell>
      </root>
    </mxGraphModel>
  </diagram>
</mxfile>
